<?xml version="1.0" encoding="UTF-8" standalone="no"?>
<svg viewBox="0 0 128 128" xmlns="http://www.w3.org/2000/svg">
<defs>
<linearGradient gradientTransform="matrix(5.29617,0,0,4.99749,-1603.0989,-1873.1257)" gradientUnits="userSpaceOnUse" id="linearGradient4206" x1="302.73621" x2="311.27377" y1="377.9527" y2="390.78342">
<stop offset="0" stop-color="#fff"/>
<stop offset="1" stop-color="#fff" stop-opacity="0"/>
</linearGradient>
<linearGradient gradientUnits="userSpaceOnUse" id="linearGradient4222" x1="14.55251" x2="48.34755" y1="42.27397" y2="81.22837">
<stop offset="0" stop-color="#fff" stop-opacity=".72656"/>
<stop offset="1" stop-color="#fff"/>
</linearGradient>
<linearGradient gradientUnits="userSpaceOnUse" id="linearGradient4213" x1="314.56537" x2="332.02466" y1="369.97995" y2="387.43924">
<stop offset="0" stop-color="#118909"/>
<stop offset="1" stop-color="#084c06"/>
</linearGradient>
</defs>
<g transform="matrix(.8907,0,0,.8907,3.6618346e-5,.04843)">
<path d="m339.53775,378.05789a13.96668,13.96668 0 1,1 -27.93335,0 13.96668,13.96668 0 1,1 27.93335,0z" fill="#084c06" transform="matrix(5.14466,0,0,5.14466,-1603.0989,-1873.1257)"/>
<path d="m339.53775,378.05789a13.96668,13.96668 0 1,1 -27.93335,0 13.96668,13.96668 0 1,1 27.93335,0z" fill="url(#linearGradient4213)" stroke="#fff" stroke-width=".32492" transform="matrix(4.6973,0,0,4.6973,-1457.4507,-1703.9962)"/>
<path d="m39.64974,58.14066c-.41675,0-1.10107.25149-1.40339.56585l-13.47259,13.75282c-.60447.61076-.60357,1.36253 0,1.9652l21.17667,20.11278 13.75327,13.75372c.30538.30537.70596.55686 1.12272.55686 .30807,0 .59998-.32334.84159-.55686l13.75327-13.4726 43.50524-43.50569c.61255-.60177.61076-1.64096 0-2.24543l-13.75327-13.75282c-.61076-.60178-1.3619-.61076-1.96475,0l-42.38253,42.38208-20.05395-18.99007c-.30268-.30538-.70596-.56585-1.12272-.56585z" fill="url(#linearGradient4222)"/>
<path d="m71.8098,6.28376c-36.21433,0-65.59445,29.38103-65.59436,65.59535 0,17.39851 7.10059,32.94677 18.16707,44.69308 5.74911-47.4846 45.82702-84.40399 94.85459-84.40399 1.32202,0 2.54955.26945 3.85855.32334-11.9969-15.60396-30.09651-26.20599-51.28585-26.20599z" fill="url(#linearGradient4206)"/>
</g>
</svg>
